# xmcd CD database file
# Copyright (C) 1993-1996 Ti Kan
#
# Track frame offsets:
# 150
# 11790
# 22125
# 34255
# 43685
# 55912
# 67095
# 77167
# 86352
# 95057
# 106232
# 115487
#
# Disc length: 1663 seconds
#
# Revision: 0
# Processed by: cddbd v1.4b41PL1 Copyright (c) Steve Scherf et al.
# Submitted via: inCDius 1.1b5
#
DISCID=a3067d0c
DTITLE=Webb Pierce - Greatest Hits - Finest Performances
DYEAR=1900
DGENRE=
TTITLE0=Slowly
TTITLE1=There Stands The Glass
TTITLE2=Sparkling Brown Eyes
TTITLE3=Honky Tonk Song
TTITLE4=Yes, I Know Why
TTITLE5=Why Baby Why
TTITLE6=Fool, Fool, Fool
TTITLE7=I Ain't Never
TTITLE8=I'm Tired
TTITLE9=More And More
TTITLE10=Love, Love, Love
TTITLE11=Holiday For Love
EXTD=
EXTT0=
EXTT1=
EXTT2=
EXTT3=
EXTT4=
EXTT5=
EXTT6=
EXTT7=
EXTT8=
EXTT9=
EXTT10=
EXTT11=
PLAYORDER=
